<svg version="1.1" id="Layer_1" xmlns="http://www.w3.org/2000/svg" xmlns:xlink="http://www.w3.org/1999/xlink" x="0px" y="0px"
	 width="100%" viewBox="0 0 512 512" enable-background="new 0 0 512 512" xml:space="preserve">
<path fill="#F14374" opacity="1.000000" stroke="none" 
	d="
M290.000000,1.000003 
	C309.354218,1.000000 328.708466,1.000000 348.455292,1.333852 
	C347.390900,3.452795 346.076752,5.380615 344.456299,7.002366 
	C284.094818,67.412788 223.689301,127.779213 163.390472,188.252014 
	C161.458252,190.189789 160.580200,193.178711 158.881775,195.799271 
	C142.012360,200.440369 134.259933,210.290894 132.169327,229.014618 
	C129.652527,230.412643 127.145096,231.460190 125.363487,233.235931 
	C85.826408,272.642975 46.378883,312.139832 6.865584,351.570740 
	C5.147747,353.285034 2.965764,354.534180 0.999997,356.000000 
	C1.000000,334.312439 1.000000,312.624878 1.333870,290.392639 
	C3.101736,288.742004 4.679017,287.779449 5.949316,286.509766 
	C99.535965,192.967804 193.101486,99.404709 286.631470,5.806084 
	C287.993500,4.443045 288.887543,2.612405 290.000000,1.000003 
z"/>
<path fill="#F0437B" opacity="1.000000" stroke="none" 
	d="
M289.531342,1.000003 
	C288.887543,2.612405 287.993500,4.443045 286.631470,5.806084 
	C193.101486,99.404709 99.535965,192.967804 5.949316,286.509766 
	C4.679017,287.779449 3.101736,288.742004 1.333870,289.923950 
	C1.000000,274.312439 1.000000,258.624878 1.345572,242.399292 
	C3.724871,240.476624 6.041242,239.374954 7.751685,237.666595 
	C84.485497,161.026688 161.174591,84.341949 237.800690,7.594339 
	C239.598511,5.793648 240.617661,3.215511 242.000000,1.000003 
	C257.687561,1.000000 273.375122,1.000000 289.531342,1.000003 
z"/>
<path fill="#F0447F" opacity="1.000000" stroke="none" 
	d="
M241.531342,1.000003 
	C240.617661,3.215511 239.598511,5.793648 237.800690,7.594339 
	C161.174591,84.341949 84.485497,161.026688 7.751685,237.666595 
	C6.041242,239.374954 3.724871,240.476624 1.345572,241.930634 
	C1.000000,228.645767 1.000000,215.291550 1.333863,201.392639 
	C3.099416,199.744308 4.674103,198.783768 5.942302,197.516510 
	C69.867432,133.638046 133.771027,69.738007 197.636856,5.800258 
	C198.996796,4.438797 199.889389,2.610512 201.000000,0.999998 
	C214.354233,1.000000 227.708450,1.000000 241.531342,1.000003 
z"/>
<path fill="#EF4584" opacity="1.000000" stroke="none" 
	d="
M200.531342,0.999998 
	C199.889389,2.610512 198.996796,4.438797 197.636856,5.800258 
	C133.771027,69.738007 69.867432,133.638046 5.942302,197.516510 
	C4.674103,198.783768 3.099416,199.744308 1.333863,200.923981 
	C1.000000,184.645767 1.000000,168.291550 1.345573,151.399323 
	C3.722527,149.478973 6.035161,148.378494 7.744278,146.673157 
	C54.153736,100.366501 100.515503,54.011971 146.806717,7.587140 
	C148.601440,5.787246 149.619843,3.213274 151.000000,0.999998 
	C167.354233,1.000000 183.708450,1.000000 200.531342,0.999998 
z"/>
<path fill="#F2416E" opacity="1.000000" stroke="none" 
	d="
M159.210709,195.677597 
	C160.580200,193.178711 161.458252,190.189789 163.390472,188.252014 
	C223.689301,127.779213 284.094818,67.412788 344.456299,7.002366 
	C346.076752,5.380615 347.390900,3.452795 348.923950,1.333852 
	C361.687561,1.000000 374.375122,1.000000 387.506897,1.359530 
	C386.561371,3.718716 385.436676,5.982932 383.743317,7.679557 
	C334.182709,57.335308 284.565308,106.934395 234.958206,156.543716 
	C233.897858,157.604126 232.529404,158.520187 231.901596,159.797089 
	C231.408203,160.800629 231.837494,162.257812 231.492661,163.661713 
	C224.451660,165.154892 218.814087,168.577011 215.144257,174.108337 
	C212.073517,178.736649 209.856003,184.067444 208.050980,189.356873 
	C206.552902,193.746826 204.590439,195.495697 199.668304,195.392487 
	C186.190353,195.109863 172.697601,195.533554 159.210709,195.677597 
z"/>
<path fill="#F2416C" opacity="1.000000" stroke="none" 
	d="
M0.999997,356.468658 
	C2.965764,354.534180 5.147747,353.285034 6.865584,351.570740 
	C46.378883,312.139832 85.826408,272.642975 125.363487,233.235931 
	C127.145096,231.460190 129.652527,230.412643 132.258453,229.475555 
	C132.635345,248.617661 132.575653,267.310120 132.187195,286.038330 
	C130.022018,287.433014 127.978867,288.584869 126.379379,290.181274 
	C86.745255,329.738098 47.174191,369.358124 7.509680,408.884399 
	C5.735008,410.652863 3.187515,411.645813 1.000000,413.000000 
	C1.000000,394.312439 1.000000,375.624878 0.999997,356.468658 
z"/>
<path fill="#F34066" opacity="1.000000" stroke="none" 
	d="
M1.000000,413.467957 
	C3.187515,411.645813 5.735008,410.652863 7.509680,408.884399 
	C47.174191,369.358124 86.745255,329.738098 126.379379,290.181274 
	C127.978867,288.584869 130.022018,287.433014 132.277954,286.498993 
	C132.875961,303.098969 133.054504,319.273956 133.014648,335.746887 
	C130.272125,338.455261 127.699242,340.816986 125.231140,343.283539 
	C90.165222,378.327972 55.139545,413.412720 20.005861,448.388977 
	C17.370806,451.012268 13.988957,452.885406 10.635248,454.931458 
	C7.866123,447.305542 5.448169,439.844421 2.907376,432.425323 
	C2.695002,431.805237 1.655317,431.468414 1.000006,431.000000 
	C1.000000,425.311951 1.000000,419.623932 1.000000,413.467957 
z"/>
<path fill="#F34066" opacity="1.000000" stroke="none" 
	d="
M420.000000,0.999997 
	C423.030609,1.000000 426.061188,1.000000 429.230713,1.334793 
	C430.353516,2.111877 431.308472,2.639930 432.325897,2.982621 
	C439.223785,5.305982 446.134888,7.590202 453.010864,10.253791 
	C451.487030,12.746675 450.268799,15.147038 448.460846,16.958920 
	C401.745117,63.776161 354.955261,110.519463 308.250031,157.347153 
	C306.470215,159.131638 305.404846,161.628662 303.667725,163.732910 
	C300.166534,162.055756 297.004181,160.439346 292.817230,158.299194 
	C294.619171,163.067612 295.977692,166.662552 297.336182,170.257492 
	C290.003540,164.163361 281.725189,162.987869 272.913849,163.375854 
	C269.286011,163.535599 265.637177,163.219009 262.068878,162.776917 
	C263.578278,160.638199 264.860992,158.686111 266.477692,157.067612 
	C315.897247,107.592636 365.365295,58.166096 414.743835,8.650254 
	C416.892456,6.495652 418.265594,3.567703 420.000000,0.999997 
z"/>
<path fill="#EE468B" opacity="1.000000" stroke="none" 
	d="
M150.531342,0.999998 
	C149.619843,3.213274 148.601440,5.787246 146.806717,7.587140 
	C100.515503,54.011971 54.153736,100.366501 7.744278,146.673157 
	C6.035161,148.378494 3.722527,149.478973 1.345573,150.930664 
	C1.000000,134.312439 1.000000,117.624878 1.359535,100.444214 
	C3.362933,98.916954 5.270219,98.147118 6.611973,96.809845 
	C36.780548,66.742172 66.903969,36.629051 96.952019,6.441000 
	C98.364479,5.021965 99.001724,2.831304 100.000000,1.000000 
	C116.687561,1.000000 133.375122,1.000000 150.531342,0.999998 
z"/>
<path fill="#F2416A" opacity="1.000000" stroke="none" 
	d="
M419.531342,0.999997 
	C418.265594,3.567703 416.892456,6.495652 414.743835,8.650254 
	C365.365295,58.166096 315.897247,107.592636 266.477692,157.067612 
	C264.860992,158.686111 263.578278,160.638199 261.611755,162.889771 
	C251.341400,163.401001 241.599152,163.457245 231.856903,163.513489 
	C231.837494,162.257812 231.408203,160.800629 231.901596,159.797089 
	C232.529404,158.520187 233.897858,157.604126 234.958206,156.543716 
	C284.565308,106.934395 334.182709,57.335308 383.743317,7.679557 
	C385.436676,5.982932 386.561371,3.718716 387.975586,1.359530 
	C398.354218,1.000000 408.708466,1.000000 419.531342,0.999997 
z"/>
<path fill="#D64B9D" opacity="1.000000" stroke="none" 
	d="
M513.000000,201.000000 
	C513.000000,205.689255 513.000000,210.378510 512.666138,215.609772 
	C510.898712,217.257080 509.321899,218.218964 508.052185,219.488098 
	C411.797638,315.698059 315.564209,411.929138 219.366211,508.195648 
	C218.004837,509.557983 217.111679,511.388153 216.000000,513.000000 
	C211.310745,513.000000 206.621490,513.000000 201.490784,512.640503 
	C202.435547,510.285187 203.556976,508.025177 205.246552,506.332123 
	C252.114059,459.368622 299.049500,412.473022 345.912781,365.505341 
	C347.590027,363.824341 348.648407,361.525879 350.416565,359.406036 
	C368.569061,357.751984 379.153778,346.935150 381.798340,327.959198 
	C383.962006,326.573334 386.005219,325.432434 387.599274,323.841522 
	C427.245911,284.272797 466.829102,244.640472 506.505646,205.101822 
	C508.275421,203.338150 510.817596,202.349579 513.000000,201.000000 
z"/>
<path fill="#D348A0" opacity="1.000000" stroke="none" 
	d="
M216.466125,513.000000 
	C217.111679,511.388153 218.004837,509.557983 219.366211,508.195648 
	C315.564209,411.929138 411.797638,315.698059 508.052185,219.488098 
	C509.321899,218.218964 510.898712,217.257080 512.666138,216.075897 
	C513.000000,220.689255 513.000000,225.378510 512.666138,230.609909 
	C510.899567,232.256699 509.323700,233.218063 508.054688,234.486435 
	C416.798615,325.697754 325.563599,416.930145 234.364349,508.198181 
	C233.003754,509.559845 232.111084,511.389038 231.000000,513.000000 
	C226.310745,513.000000 221.621490,513.000000 216.466125,513.000000 
z"/>
<path fill="#BF4EC8" opacity="1.000000" stroke="none" 
	d="
M513.000000,347.000000 
	C513.000000,355.354218 513.000000,363.708466 512.640503,372.555756 
	C510.636566,374.083618 508.727448,374.853119 507.386139,376.191620 
	C463.556030,419.928772 419.768768,463.708893 376.049469,507.556702 
	C374.635468,508.974823 373.998932,511.168091 373.000000,513.000000 
	C364.645782,513.000000 356.291534,513.000000 347.493103,512.640503 
	C348.082581,510.637665 348.850647,508.729218 350.188232,507.389313 
	C402.595795,454.891724 455.045410,402.436127 507.560120,350.045807 
	C508.976562,348.632751 511.169312,347.997833 513.000000,347.000000 
z"/>
<path fill="#D149A4" opacity="1.000000" stroke="none" 
	d="
M231.464661,513.000000 
	C232.111084,511.389038 233.003754,509.559845 234.364349,508.198181 
	C325.563599,416.930145 416.798615,325.697754 508.054688,234.486435 
	C509.323700,233.218063 510.899567,232.256699 512.666138,231.076019 
	C513.000000,235.356903 513.000000,239.713806 512.666138,244.611389 
	C510.899078,246.257217 509.322632,247.219040 508.053101,248.487946 
	C421.464752,335.031250 334.897614,421.595795 248.366394,508.196228 
	C247.005142,509.558563 246.111725,511.388336 245.000000,513.000000 
	C240.643097,513.000000 236.286194,513.000000 231.464661,513.000000 
z"/>
<path fill="#DC468E" opacity="1.000000" stroke="none" 
	d="
M177.000000,513.000000 
	C168.979095,513.000000 160.958191,513.000000 152.537964,512.654419 
	C153.876389,509.921997 155.332870,507.254547 157.393158,505.189484 
	C203.868942,458.606323 250.421371,412.099609 296.898682,365.517975 
	C298.579559,363.833344 299.644012,361.533722 301.459412,359.448975 
	C309.947388,359.424988 317.971680,359.472687 325.959930,359.846863 
	C324.558838,362.006134 323.396973,364.041779 321.799133,365.642120 
	C275.295593,412.218628 228.731812,458.735016 182.261551,505.344666 
	C180.111374,507.501282 178.736160,510.430573 177.000000,513.000000 
z"/>
<path fill="#BB50D1" opacity="1.000000" stroke="none" 
	d="
M373.468628,513.000000 
	C373.998932,511.168091 374.635468,508.974823 376.049469,507.556702 
	C419.768768,463.708893 463.556030,419.928772 507.386139,376.191620 
	C508.727448,374.853119 510.636566,374.083618 512.640503,373.024414 
	C513.000000,382.687561 513.000000,392.375122 512.640503,402.555756 
	C510.636414,404.083801 508.728058,404.854187 507.385925,406.192444 
	C473.553589,439.926636 439.765564,473.705353 406.050415,507.556549 
	C404.636841,508.975830 403.999146,511.167908 403.000000,513.000000 
	C393.312439,513.000000 383.624878,513.000000 373.468628,513.000000 
z"/>
<path fill="#E84376" opacity="1.000000" stroke="none" 
	d="
M513.000000,83.000000 
	C513.000000,87.689255 513.000000,92.378510 512.654419,97.603271 
	C510.394989,99.403954 508.201141,100.388260 506.608429,101.975693 
	C473.720367,134.753830 440.885712,167.585617 408.118195,200.484177 
	C406.698425,201.909592 406.020752,204.074158 404.594482,205.916946 
	C397.605042,204.630295 391.018494,203.321091 382.906158,201.708618 
	C389.108246,195.656830 394.370056,190.522552 399.804810,185.219498 
	C397.660950,185.219498 395.860931,185.219498 394.110199,184.857269 
	C395.493042,182.443481 396.515839,180.082291 398.206024,178.386093 
	C432.582520,143.887619 467.016296,109.446098 501.527130,75.082039 
	C503.327606,73.289207 505.913635,72.285286 508.473663,71.114197 
	C509.632690,75.064415 510.419830,78.822449 511.338074,82.548172 
	C511.404816,82.818863 512.423767,82.854874 513.000000,83.000000 
z"/>
<path fill="#E4447F" opacity="1.000000" stroke="none" 
	d="
M404.997406,205.894409 
	C406.020752,204.074158 406.698425,201.909592 408.118195,200.484177 
	C440.885712,167.585617 473.720367,134.753830 506.608429,101.975693 
	C508.201141,100.388260 510.394989,99.403954 512.654419,98.069397 
	C513.000000,107.020897 513.000000,116.041786 512.666138,125.607338 
	C510.664459,127.491646 508.857910,128.691879 507.350281,130.192490 
	C492.126617,145.345688 476.971985,160.568176 461.758911,175.732071 
	C435.818085,201.589050 409.849213,227.417892 383.611511,253.009384 
	C382.365570,247.374527 381.400269,241.988846 380.294067,235.817169 
	C385.730255,235.817169 389.616333,235.817169 394.930603,235.817169 
	C389.902100,231.038910 385.903931,227.239716 381.530365,223.083786 
	C389.283722,218.204956 396.478241,213.757568 403.549164,209.121658 
	C404.380035,208.576904 404.531158,206.995331 404.997406,205.894409 
z"/>
<path fill="#D84796" opacity="1.000000" stroke="none" 
	d="
M177.468628,513.000000 
	C178.736160,510.430573 180.111374,507.501282 182.261551,505.344666 
	C228.731812,458.735016 275.295593,412.218628 321.799133,365.642120 
	C323.396973,364.041779 324.558838,362.006134 326.423767,359.776855 
	C334.614166,359.425293 342.304688,359.470215 349.995209,359.515137 
	C348.648407,361.525879 347.590027,363.824341 345.912781,365.505341 
	C299.049500,412.473022 252.114059,459.368622 205.246552,506.332123 
	C203.556976,508.025177 202.435547,510.285187 201.024658,512.640503 
	C193.312424,513.000000 185.624832,513.000000 177.468628,513.000000 
z"/>
<path fill="#E04587" opacity="1.000000" stroke="none" 
	d="
M300.995758,359.520691 
	C299.644012,361.533722 298.579559,363.833344 296.898682,365.517975 
	C250.421371,412.099609 203.868942,458.606323 157.393158,505.189484 
	C155.332870,507.254547 153.876389,509.921997 152.069321,512.654419 
	C144.312424,513.000000 136.624832,513.000000 128.544662,512.666138 
	C129.607574,510.548676 130.920547,508.622681 132.539291,507.002136 
	C179.319885,460.170288 226.148056,413.385895 272.874115,366.499756 
	C274.721863,364.645721 275.643188,361.868439 277.459930,359.450775 
	C285.614380,359.427032 293.305084,359.473877 300.995758,359.520691 
z"/>
<path fill="#C74CB9" opacity="1.000000" stroke="none" 
	d="
M513.000000,300.000000 
	C513.000000,305.022095 513.000000,310.044189 512.666138,315.609192 
	C510.899414,317.256927 509.323639,318.218658 508.054291,319.487061 
	C445.131561,382.363037 382.230408,445.260620 319.367096,508.196014 
	C318.005890,509.558777 317.111908,511.388245 316.000000,513.000000 
	C310.977905,513.000000 305.955811,513.000000 300.491272,512.640503 
	C301.085449,510.634705 301.856110,508.722778 303.196899,507.380310 
	C371.266815,439.223755 439.377747,371.108154 507.550659,303.054657 
	C508.969635,301.638245 511.166199,301.000854 513.000000,300.000000 
z"/>
<path fill="#E34480" opacity="1.000000" stroke="none" 
	d="
M276.996155,359.521301 
	C275.643188,361.868439 274.721863,364.645721 272.874115,366.499756 
	C226.148056,413.385895 179.319885,460.170288 132.539291,507.002136 
	C130.920547,508.622681 129.607574,510.548676 128.076035,512.666138 
	C121.312355,513.000000 114.624710,513.000000 107.537842,512.654419 
	C108.876366,509.921997 110.332878,507.254547 112.393158,505.189484 
	C158.868805,458.606445 205.421066,412.099854 251.898270,365.518372 
	C253.579208,363.833618 254.644211,361.534363 256.459778,359.449707 
	C263.614258,359.425720 270.305206,359.473511 276.996155,359.521301 
z"/>
<path fill="#C94BB4" opacity="1.000000" stroke="none" 
	d="
M513.000000,299.533142 
	C511.166199,301.000854 508.969635,301.638245 507.550659,303.054657 
	C439.377747,371.108154 371.266815,439.223755 303.196899,507.380310 
	C301.856110,508.722778 301.085449,510.634705 300.024414,512.640503 
	C294.977905,513.000000 289.955811,513.000000 284.542877,512.666138 
	C285.256134,510.900085 286.217010,509.324799 287.484802,508.056183 
	C361.029541,434.465546 434.595703,360.896301 508.198700,287.363922 
	C509.560333,286.003601 511.389130,285.110870 513.000000,284.000000 
	C513.000000,289.022095 513.000000,294.044189 513.000000,299.533142 
z"/>
<path fill="#CB4BB0" opacity="1.000000" stroke="none" 
	d="
M513.000000,283.535339 
	C511.389130,285.110870 509.560333,286.003601 508.198700,287.363922 
	C434.595703,360.896301 361.029541,434.465546 287.484802,508.056183 
	C286.217010,509.324799 285.256134,510.900085 284.076019,512.666138 
	C279.643097,513.000000 275.286194,513.000000 270.540680,512.666138 
	C271.257507,510.898834 272.219788,509.322266 273.488922,508.052399 
	C351.697876,429.797913 429.928101,351.564667 508.194855,273.368042 
	C509.557770,272.006317 511.387878,271.112244 513.000000,270.000000 
	C513.000000,274.356903 513.000000,278.713806 513.000000,283.535339 
z"/>
<path fill="#CD4AAC" opacity="1.000000" stroke="none" 
	d="
M513.000000,269.536804 
	C511.387878,271.112244 509.557770,272.006317 508.194855,273.368042 
	C429.928101,351.564667 351.697876,429.797913 273.488922,508.052399 
	C272.219788,509.322266 271.257507,510.898834 270.076050,512.666138 
	C265.975464,513.000000 261.950897,513.000000 257.539246,512.666138 
	C258.257263,510.899109 259.219116,509.322754 260.487976,508.053192 
	C343.031097,425.464813 425.595520,342.897675 508.196106,260.366730 
	C509.558594,259.005432 511.388306,258.111847 513.000000,257.000000 
	C513.000000,261.024536 513.000000,265.049103 513.000000,269.536804 
z"/>
<path fill="#E94274" opacity="1.000000" stroke="none" 
	d="
M88.000000,513.000000 
	C86.611000,513.000000 85.222008,513.000000 83.728699,512.665955 
	C79.083405,510.832489 74.542412,509.333069 70.085205,507.511841 
	C71.650513,505.422150 73.007668,503.530029 74.631622,501.904449 
	C119.416481,457.074341 164.247787,412.290558 208.976089,367.404144 
	C211.100922,365.271820 212.353119,362.269958 214.462967,359.546143 
	C221.608261,359.453552 228.302292,359.487823 234.985504,359.867157 
	C233.582489,362.375397 232.525055,364.872498 230.749191,366.653046 
	C184.565323,412.960327 138.285629,459.172089 92.135361,505.512756 
	C90.201111,507.455017 89.353722,510.479614 88.000000,513.000000 
z"/>
<path fill="#CF4AA8" opacity="1.000000" stroke="none" 
	d="
M513.000000,256.539368 
	C511.388306,258.111847 509.558594,259.005432 508.196106,260.366730 
	C425.595520,342.897675 343.031097,425.464813 260.487976,508.053192 
	C259.219116,509.322754 258.257263,510.899109 257.076050,512.666138 
	C253.307098,513.000000 249.614182,513.000000 245.460632,513.000000 
	C246.111725,511.388336 247.005142,509.558563 248.366394,508.196228 
	C334.897614,421.595795 421.464752,335.031250 508.053101,248.487946 
	C509.322632,247.219040 510.899078,246.257217 512.666138,245.076035 
	C513.000000,248.692917 513.000000,252.385818 513.000000,256.539368 
z"/>
<path fill="#E6437A" opacity="1.000000" stroke="none" 
	d="
M88.468269,513.000000 
	C89.353722,510.479614 90.201111,507.455017 92.135361,505.512756 
	C138.285629,459.172089 184.565323,412.960327 230.749191,366.653046 
	C232.525055,364.872498 233.582489,362.375397 235.449097,359.795715 
	C242.614410,359.426605 249.305328,359.474060 255.996262,359.521484 
	C254.644211,361.534363 253.579208,363.833618 251.898270,365.518372 
	C205.421066,412.099854 158.868805,458.606445 112.393158,505.189484 
	C110.332878,507.254547 108.876366,509.921997 107.069313,512.654419 
	C100.978844,513.000000 94.957695,513.000000 88.468269,513.000000 
z"/>
<path fill="#ED4790" opacity="1.000000" stroke="none" 
	d="
M99.532394,1.000000 
	C99.001724,2.831304 98.364479,5.021965 96.952019,6.441000 
	C66.903969,36.629051 36.780548,66.742172 6.611973,96.809845 
	C5.270219,98.147118 3.362933,98.916954 1.359535,99.975555 
	C1.000000,94.645073 1.000000,89.290138 1.313141,83.804306 
	C3.034037,79.277260 4.279058,74.821091 5.875185,70.494453 
	C19.134016,34.553631 44.016800,11.615565 81.613274,2.903086 
	C82.191467,2.769096 82.542793,1.656107 83.000000,1.000000 
	C88.354927,1.000000 93.709862,1.000000 99.532394,1.000000 
z"/>
<path fill="#D84796" opacity="1.000000" stroke="none" 
	d="
M513.000000,200.531372 
	C510.817596,202.349579 508.275421,203.338150 506.505646,205.101822 
	C466.829102,244.640472 427.245911,284.272797 387.599274,323.841522 
	C386.005219,325.432434 383.962006,326.573334 381.714478,327.497620 
	C381.359863,319.713593 381.418915,312.355865 381.825806,304.987610 
	C384.343353,303.590454 386.851349,302.543121 388.633118,300.767212 
	C428.171295,261.359192 467.619904,221.861298 507.134247,182.429306 
	C508.852142,180.715027 511.034180,179.465851 513.000000,178.000000 
	C513.000000,185.354248 513.000000,192.708496 513.000000,200.531372 
z"/>
<path fill="#C34DC2" opacity="1.000000" stroke="none" 
	d="
M513.000000,346.532410 
	C511.169312,347.997833 508.976562,348.632751 507.560120,350.045807 
	C455.045410,402.436127 402.595795,454.891724 350.188232,507.389313 
	C348.850647,508.729218 348.082581,510.637665 347.024414,512.640503 
	C341.645081,513.000000 336.290131,513.000000 330.543671,512.666138 
	C331.255371,510.901031 332.215546,509.326935 333.482300,508.059143 
	C391.694641,449.799500 449.928680,391.561554 508.201080,333.362000 
	C509.562225,332.002533 511.389923,331.110199 513.000000,330.000000 
	C513.000000,335.354919 513.000000,340.709869 513.000000,346.532410 
z"/>
<path fill="#B651DA" opacity="1.000000" stroke="none" 
	d="
M403.468658,513.000000 
	C403.999146,511.167908 404.636841,508.975830 406.050415,507.556549 
	C439.765564,473.705353 473.553589,439.926636 507.385925,406.192444 
	C508.728058,404.854187 510.636414,404.083801 512.640503,403.024414 
	C513.000000,412.020905 513.000000,421.041779 512.765747,430.195312 
	C511.965210,430.885864 511.398987,431.443756 510.483765,432.028595 
	C508.505890,433.121124 506.634827,433.943512 505.284180,435.288513 
	C481.574127,458.898773 457.914093,482.559357 434.302826,506.268372 
	C432.953827,507.622955 432.116333,509.486877 430.874542,511.484833 
	C430.805542,512.237305 430.902771,512.618652 431.000000,513.000000 
	C421.979095,513.000000 412.958221,513.000000 403.468658,513.000000 
z"/>
<path fill="#C44DBE" opacity="1.000000" stroke="none" 
	d="
M513.000000,329.535339 
	C511.389923,331.110199 509.562225,332.002533 508.201080,333.362000 
	C449.928680,391.561554 391.694641,449.799500 333.482300,508.059143 
	C332.215546,509.326935 331.255371,510.901031 330.076050,512.666138 
	C325.643097,513.000000 321.286194,513.000000 316.464661,513.000000 
	C317.111908,511.388245 318.005890,509.558777 319.367096,508.196014 
	C382.230408,445.260620 445.131561,382.363037 508.054291,319.487061 
	C509.323639,318.218658 510.899414,317.256927 512.666138,316.076050 
	C513.000000,320.356903 513.000000,324.713806 513.000000,329.535339 
z"/>
<path fill="#DC468F" opacity="1.000000" stroke="none" 
	d="
M513.000000,177.531601 
	C511.034180,179.465851 508.852142,180.715027 507.134247,182.429306 
	C467.619904,221.861298 428.171295,261.359192 388.633118,300.767212 
	C386.851349,302.543121 384.343353,303.590454 381.738251,304.526581 
	C381.362183,297.716919 381.421509,291.357788 381.828491,284.988281 
	C384.345581,283.590424 386.852753,282.541809 388.634766,280.765625 
	C428.172394,241.358078 467.620453,201.860672 507.134338,162.429214 
	C508.852173,160.714951 511.034210,159.465820 513.000000,158.000000 
	C513.000000,164.354401 513.000000,170.708786 513.000000,177.531601 
z"/>
<path fill="#E04586" opacity="1.000000" stroke="none" 
	d="
M383.892151,253.258545 
	C409.849213,227.417892 435.818085,201.589050 461.758911,175.732071 
	C476.971985,160.568176 492.126617,145.345688 507.350281,130.192490 
	C508.857910,128.691879 510.664459,127.491646 512.666138,126.075996 
	C513.000000,131.688034 513.000000,137.376083 512.640503,143.556488 
	C510.399323,145.320618 508.253662,146.327713 506.674622,147.902832 
	C466.571350,187.906723 426.537109,227.979782 386.430817,267.980682 
	C385.101196,269.306824 383.147003,270.006744 381.395264,270.559631 
	C381.306580,267.213989 381.306580,264.307312 381.306580,260.930084 
	C383.843384,261.962982 385.761963,262.744171 388.515259,263.865234 
	C386.731598,259.773010 385.311890,256.515778 383.892151,253.258545 
z"/>
<path fill="#000000" opacity="1.000000" stroke="none" 
	d="
M513.000000,82.531342 
	C512.423767,82.854874 511.404816,82.818863 511.338074,82.548172 
	C510.419830,78.822449 509.632690,75.064415 508.405884,70.739883 
	C504.037567,62.430801 500.076691,54.696144 496.058899,46.606377 
	C489.544189,38.880440 483.797485,30.676432 476.421600,24.381275 
	C469.527039,18.496861 460.903992,14.637644 453.041718,9.887074 
	C446.134888,7.590202 439.223785,5.305982 432.325897,2.982621 
	C431.308472,2.639930 430.353516,2.111877 429.684814,1.334793 
	C457.593109,1.000000 485.186249,1.000000 513.000000,1.000000 
	C513.000000,28.020494 513.000000,55.041588 513.000000,82.531342 
z"/>
<path fill="#000000" opacity="1.000000" stroke="none" 
	d="
M70.001419,507.833618 
	C74.542412,509.333069 79.083405,510.832489 83.312195,512.665955 
	C55.739773,513.000000 28.479548,513.000000 1.000000,513.000000 
	C1.000000,485.979492 1.000000,458.958405 1.000006,431.468628 
	C1.655317,431.468414 2.695002,431.805237 2.907376,432.425323 
	C5.448169,439.844421 7.866123,447.305542 10.664310,455.294678 
	C17.019524,469.549133 26.877165,480.242645 38.021389,490.364258 
	C43.104462,493.824341 48.031158,496.969299 53.127472,500.424255 
	C58.865204,503.100708 64.433311,505.467163 70.001419,507.833618 
z"/>
<path fill="#000000" opacity="1.000000" stroke="none" 
	d="
M431.468658,513.000000 
	C430.902771,512.618652 430.805542,512.237305 431.285889,511.434204 
	C435.940125,510.019104 440.135925,509.364319 444.074371,507.978180 
	C472.931610,497.821716 493.196106,478.257263 505.575867,450.541718 
	C508.168640,444.737122 509.123291,438.200806 510.832764,432.001648 
	C511.398987,431.443756 511.965210,430.885864 512.765747,430.664001 
	C513.000000,458.260223 513.000000,485.520477 513.000000,513.000000 
	C485.979492,513.000000 458.958405,513.000000 431.468658,513.000000 
z"/>
<path fill="#000000" opacity="1.000000" stroke="none" 
	d="
M82.531342,1.000000 
	C82.542793,1.656107 82.191467,2.769096 81.613274,2.903086 
	C44.016800,11.615565 19.134016,34.553631 5.875185,70.494453 
	C4.279058,74.821091 3.034037,79.277260 1.313141,83.336700 
	C1.000000,55.739769 1.000000,28.479540 1.000000,1.000000 
	C28.020498,1.000000 55.041592,1.000000 82.531342,1.000000 
z"/>
<path fill="#DE458A" opacity="1.000000" stroke="none" 
	d="
M381.483917,270.998566 
	C383.147003,270.006744 385.101196,269.306824 386.430817,267.980682 
	C426.537109,227.979782 466.571350,187.906723 506.674622,147.902832 
	C508.253662,146.327713 510.399323,145.320618 512.640503,144.024414 
	C513.000000,148.356903 513.000000,152.713806 513.000000,157.535355 
	C511.034210,159.465820 508.852173,160.714951 507.134338,162.429214 
	C467.620453,201.860672 428.172394,241.358078 388.634766,280.765625 
	C386.852753,282.541809 384.345581,283.590424 381.740234,284.530914 
	C381.364166,279.722137 381.424042,275.360352 381.483917,270.998566 
z"/>
<path fill="#FFFEFE" opacity="1.000000" stroke="none" 
	d="
M381.395264,270.559631 
	C381.424042,275.360352 381.364166,279.722137 381.392548,284.541321 
	C381.421509,291.357788 381.362183,297.716919 381.390442,304.537048 
	C381.418915,312.355865 381.359863,319.713593 381.384735,327.532928 
	C379.153778,346.935150 368.569061,357.751984 350.416565,359.406006 
	C342.304688,359.470215 334.614166,359.425293 326.459808,359.450378 
	C317.971680,359.472687 309.947388,359.424988 301.459412,359.449005 
	C293.305084,359.473877 285.614380,359.427032 277.459930,359.450745 
	C270.305206,359.473511 263.614258,359.425720 256.459778,359.449707 
	C249.305328,359.474060 242.614410,359.426605 235.459900,359.450623 
	C228.302292,359.487823 221.608261,359.453552 214.007812,359.423523 
	C205.403717,359.508209 197.706039,359.588654 189.553696,359.546417 
	C182.056335,359.505280 175.013641,359.586853 167.531113,359.544861 
	C150.074905,359.523926 139.117126,351.069458 133.233032,335.448975 
	C133.054504,319.273956 132.875961,303.098969 132.606689,286.463257 
	C132.575653,267.310120 132.635345,248.617661 132.605911,229.464264 
	C134.259933,210.290894 142.012360,200.440369 158.881775,195.799271 
	C172.697601,195.533554 186.190353,195.109863 199.668304,195.392487 
	C204.590439,195.495697 206.552902,193.746826 208.050980,189.356873 
	C209.856003,184.067444 212.073517,178.736649 215.144257,174.108337 
	C218.814087,168.577011 224.451660,165.154892 231.492661,163.661713 
	C241.599152,163.457245 251.341400,163.401001 261.540771,163.231918 
	C265.637177,163.219009 269.286011,163.535599 272.913849,163.375854 
	C281.725189,162.987869 290.003540,164.163361 297.336182,170.257492 
	C295.977692,166.662552 294.619171,163.067612 292.817230,158.299194 
	C297.004181,160.439346 300.166534,162.055756 303.953064,163.946381 
	C311.747528,167.927216 318.917786,171.633835 326.252960,175.425705 
	C330.174652,168.094467 333.804047,161.309631 337.884979,153.680679 
	C342.138702,161.479721 345.898712,168.373596 349.638763,175.230835 
	C359.506897,170.958832 368.764008,166.951355 378.242554,163.312653 
	C376.045227,171.650772 373.626465,179.620117 370.958923,188.409225 
	C379.126862,187.281464 386.593903,186.250488 394.060944,185.219498 
	C395.860931,185.219498 397.660950,185.219498 399.804810,185.219498 
	C394.370056,190.522552 389.108246,195.656830 382.906158,201.708618 
	C391.018494,203.321091 397.605042,204.630295 404.594482,205.916946 
	C404.531158,206.995331 404.380035,208.576904 403.549164,209.121658 
	C396.478241,213.757568 389.283722,218.204956 381.530365,223.083786 
	C385.903931,227.239716 389.902100,231.038910 394.930603,235.817169 
	C389.616333,235.817169 385.730255,235.817169 380.294067,235.817169 
	C381.400269,241.988846 382.365570,247.374527 383.611511,253.009384 
	C385.311890,256.515778 386.731598,259.773010 388.515259,263.865234 
	C385.761963,262.744171 383.843384,261.962982 381.306580,260.930084 
	C381.306580,264.307312 381.306580,267.213989 381.395264,270.559631 
M299.932312,260.287323 
	C296.001068,255.432205 292.069855,250.577103 287.789429,245.140167 
	C287.078766,244.732178 286.307983,244.401810 285.666229,243.904846 
	C269.925842,231.715561 252.915833,230.798172 235.549026,239.352707 
	C205.200058,254.301987 199.643906,297.135559 225.426727,318.374542 
	C232.880905,324.586639 241.023911,329.269745 251.779800,330.141022 
	C281.158966,333.358185 306.735321,309.723236 305.087677,280.123444 
	C303.393860,273.744354 301.700043,267.365234 299.932312,260.287323 
M361.549713,247.390884 
	C367.527008,250.048599 373.504333,252.706299 379.481628,255.363998 
	C379.775604,255.023727 380.069580,254.683472 380.363586,254.343201 
	C377.246368,248.560883 374.129150,242.778564 370.874664,236.210129 
	C370.516357,235.050125 370.158051,233.890106 369.592316,232.058441 
	C375.040009,232.058441 379.764618,232.058441 384.489258,232.058441 
	C384.703949,231.673950 384.918640,231.289459 385.133301,230.904968 
	C381.691345,227.952866 378.249390,225.000763 374.447327,221.739792 
	C382.233337,216.760376 389.002747,212.431122 396.944702,207.351974 
	C389.355469,205.990265 383.329285,204.908997 377.354950,203.180313 
	C381.520386,198.657349 385.685852,194.134399 390.685913,188.705170 
	C381.706451,189.782501 373.919281,190.716797 366.220795,190.933701 
	C368.261230,184.078400 370.301666,177.223083 372.721893,169.091812 
	C365.571259,172.589584 359.784973,175.419968 353.292114,178.415649 
	C351.530731,179.145554 349.769379,179.875458 348.081757,180.574783 
	C344.708618,174.278107 341.647461,168.563766 338.163879,162.060959 
	C334.654449,168.787628 331.679535,174.489792 328.468048,180.645432 
	C319.349976,175.908646 310.493073,171.307541 300.380035,166.053879 
	C303.820526,174.769073 306.711304,182.091766 309.874329,190.104126 
	C302.016968,190.104126 294.833862,190.104126 287.650787,190.104126 
	C287.392792,190.540405 287.134796,190.976669 286.876831,191.412949 
	C291.313904,195.466431 295.750977,199.519897 300.736694,204.074600 
	C293.204559,206.715012 286.584595,209.035675 278.792419,211.767242 
	C287.660553,214.234482 295.359619,216.376465 303.917725,218.757446 
	C299.200928,222.704147 295.265137,225.997360 291.329346,229.290588 
	C291.518921,229.647186 291.708496,230.003769 291.898071,230.360367 
	C296.878387,230.360367 301.858734,230.360367 306.772278,231.154160 
	C306.223297,236.670074 305.674316,242.185974 305.038910,248.570145 
	C309.519653,246.960556 313.304749,245.600861 317.865631,244.177521 
	C325.788361,241.893478 325.788055,241.893692 330.811188,248.629776 
	C330.909515,248.761642 331.036377,248.872238 331.286072,249.661835 
	C333.634308,253.633972 335.982513,257.606110 338.703064,262.208099 
	C342.086121,255.085724 345.188782,248.553604 348.367767,241.860855 
	C352.780029,243.633133 356.896088,245.286423 361.549713,247.390884 
M160.087082,242.484070 
	C161.197311,243.208282 162.244980,244.061371 163.427994,244.635620 
	C170.735733,248.182800 180.044205,244.898926 183.863770,237.481705 
	C187.563217,230.297745 184.907166,221.880646 177.640671,217.760559 
	C170.953934,213.969208 162.713516,215.440170 157.805588,221.301254 
	C152.783875,227.298218 153.435669,235.133942 160.087082,242.484070 
z"/>
<path fill="#F43F60" opacity="1.000000" stroke="none" 
	d="
M133.014648,335.746887 
	C139.117126,351.069458 150.074905,359.523926 167.497253,359.859680 
	C166.753845,361.880310 165.792603,363.650269 164.427795,365.017365 
	C124.003639,405.508881 83.547783,445.968750 43.048180,486.384796 
	C41.571815,487.858124 39.603870,488.838867 37.865009,490.049164 
	C26.877165,480.242645 17.019524,469.549133 10.983332,455.470490 
	C13.988957,452.885406 17.370806,451.012268 20.005861,448.388977 
	C55.139545,413.412720 90.165222,378.327972 125.231140,343.283539 
	C127.699242,340.816986 130.272125,338.455261 133.014648,335.746887 
z"/>
<path fill="#F34061" opacity="1.000000" stroke="none" 
	d="
M378.021118,162.943848 
	C368.764008,166.951355 359.506897,170.958832 349.638763,175.230835 
	C345.898712,168.373596 342.138702,161.479721 337.884979,153.680679 
	C333.804047,161.309631 330.174652,168.094467 326.252960,175.425705 
	C318.917786,171.633835 311.747528,167.927216 304.291931,164.007126 
	C305.404846,161.628662 306.470215,159.131638 308.250031,157.347153 
	C354.955261,110.519463 401.745117,63.776161 448.460846,16.958920 
	C450.268799,15.147038 451.487030,12.746675 453.010864,10.253791 
	C460.903992,14.637644 469.527039,18.496861 476.421600,24.381275 
	C483.797485,30.676432 489.544189,38.880440 495.717468,46.684788 
	C493.637329,48.563587 491.690369,49.857216 490.068481,51.476425 
	C454.693268,86.793137 419.358276,122.150154 383.995209,157.479050 
	C382.354218,159.118454 380.523956,160.568390 378.572083,162.194794 
	C378.061432,162.442123 377.914276,162.691788 377.958862,163.024780 
	C377.996948,163.017517 378.021118,162.943848 378.021118,162.943848 
z"/>
<path fill="#ED416C" opacity="1.000000" stroke="none" 
	d="
M378.781799,162.106567 
	C380.523956,160.568390 382.354218,159.118454 383.995209,157.479050 
	C419.358276,122.150154 454.693268,86.793137 490.068481,51.476425 
	C491.690369,49.857216 493.637329,48.563587 495.774353,47.039902 
	C500.076691,54.696144 504.037567,62.430801 508.066162,70.539764 
	C505.913635,72.285286 503.327606,73.289207 501.527130,75.082039 
	C467.016296,109.446098 432.582520,143.887619 398.206024,178.386093 
	C396.515839,180.082291 395.493042,182.443481 394.110199,184.857269 
	C386.593903,186.250488 379.126862,187.281464 370.958923,188.409225 
	C373.626465,179.620117 376.045227,171.650772 378.242554,163.312637 
	C378.021118,162.943848 377.996948,163.017517 378.239563,163.125702 
	C378.582031,162.858109 378.681915,162.482330 378.781799,162.106567 
z"/>
<path fill="#ED416D" opacity="1.000000" stroke="none" 
	d="
M190.008331,359.669128 
	C197.706039,359.588654 205.403717,359.508209 213.556549,359.550385 
	C212.353119,362.269958 211.100922,365.271820 208.976089,367.404144 
	C164.247787,412.290558 119.416481,457.074341 74.631622,501.904449 
	C73.007668,503.530029 71.650513,505.422150 70.085213,507.511841 
	C64.433311,505.467163 58.865204,503.100708 53.206604,500.082947 
	C54.558811,497.639771 55.849953,495.696442 57.466320,494.077972 
	C100.240623,451.248016 143.058884,408.461945 185.812073,365.610962 
	C187.500122,363.919006 188.622406,361.662537 190.008331,359.669128 
z"/>
<path fill="#B352E1" opacity="1.000000" stroke="none" 
	d="
M510.483765,432.028625 
	C509.123291,438.200806 508.168640,444.737122 505.575867,450.541718 
	C493.196106,478.257263 472.931610,497.821716 444.074371,507.978180 
	C440.135925,509.364319 435.940125,510.019104 431.452148,511.063110 
	C432.116333,509.486877 432.953827,507.622955 434.302826,506.268372 
	C457.914093,482.559357 481.574127,458.898773 505.284180,435.288513 
	C506.634827,433.943512 508.505890,433.121124 510.483765,432.028625 
z"/>
<path fill="#F04065" opacity="1.000000" stroke="none" 
	d="
M189.553680,359.546387 
	C188.622406,361.662537 187.500122,363.919006 185.812073,365.610962 
	C143.058884,408.461945 100.240623,451.248016 57.466320,494.077972 
	C55.849953,495.696442 54.558811,497.639771 53.036980,499.773010 
	C48.031158,496.969299 43.104462,493.824341 38.021385,490.364258 
	C39.603870,488.838867 41.571815,487.858124 43.048180,486.384796 
	C83.547783,445.968750 124.003639,405.508881 164.427795,365.017365 
	C165.792603,363.650269 166.753845,361.880310 167.937073,359.983276 
	C175.013641,359.586853 182.056335,359.505280 189.553680,359.546387 
z"/>
<path fill="#F44263" opacity="1.000000" stroke="none" 
	d="
M225.052673,317.803589 
	C199.643906,297.135559 205.200058,254.301987 235.549026,239.352707 
	C252.915833,230.798172 269.925842,231.715561 285.666229,243.904846 
	C286.307983,244.401810 287.078766,244.732178 287.786316,245.735352 
	C284.149872,250.330261 280.516602,254.329971 276.554565,258.192444 
	C266.117737,250.678909 255.255524,249.082016 243.927994,254.644226 
	C233.272934,259.876251 227.367157,268.687439 226.583511,280.622650 
	C225.920135,290.725769 230.026886,298.980316 236.731842,306.168579 
	C232.649460,310.163025 228.851074,313.983307 225.052673,317.803589 
z"/>
<path fill="#F34262" opacity="1.000000" stroke="none" 
	d="
M306.839081,230.360367 
	C301.858734,230.360367 296.878387,230.360367 291.898071,230.360367 
	C291.708496,230.003769 291.518921,229.647186 291.329346,229.290588 
	C295.265137,225.997360 299.200928,222.704147 303.917725,218.757446 
	C295.359619,216.376465 287.660553,214.234482 278.792419,211.767242 
	C286.584595,209.035675 293.204559,206.715012 300.736694,204.074600 
	C295.750977,199.519897 291.313904,195.466431 286.876831,191.412949 
	C287.134796,190.976669 287.392792,190.540405 287.650787,190.104126 
	C294.833862,190.104126 302.016968,190.104126 309.874329,190.104126 
	C306.711304,182.091766 303.820526,174.769073 300.380035,166.053879 
	C310.493073,171.307541 319.349976,175.908646 328.468048,180.645432 
	C331.679535,174.489792 334.654449,168.787628 338.163879,162.060959 
	C341.647461,168.563766 344.708618,174.278107 348.081757,180.574783 
	C349.769379,179.875458 351.530731,179.145554 353.615295,178.676132 
	C352.740936,180.675995 351.772949,182.642792 350.310059,184.119186 
	C337.068909,197.482300 323.694031,210.713211 310.498962,224.121277 
	C308.859039,225.787689 308.039032,228.260971 306.839081,230.360367 
z"/>
<path fill="#EF4168" opacity="1.000000" stroke="none" 
	d="
M306.805664,230.757263 
	C308.039032,228.260971 308.859039,225.787689 310.498962,224.121277 
	C323.694031,210.713211 337.068909,197.482300 350.310059,184.119186 
	C351.772949,182.642792 352.740936,180.675995 353.968567,178.593475 
	C359.784973,175.419968 365.571259,172.589584 372.721893,169.091812 
	C370.301666,177.223083 368.261230,184.078400 366.089355,191.649323 
	C364.661743,194.053452 363.531677,195.907028 362.043488,197.404770 
	C348.358582,211.177429 334.582092,224.859207 320.923218,238.657471 
	C319.360229,240.236404 318.354126,242.366577 317.089844,244.241150 
	C313.304749,245.600861 309.519653,246.960556 305.038910,248.570145 
	C305.674316,242.185974 306.223297,236.670074 306.805664,230.757263 
z"/>
<path fill="#EC426F" opacity="1.000000" stroke="none" 
	d="
M317.477722,244.209335 
	C318.354126,242.366577 319.360229,240.236404 320.923218,238.657471 
	C334.582092,224.859207 348.358582,211.177429 362.043488,197.404770 
	C363.531677,195.907028 364.661743,194.053452 366.045044,192.007996 
	C373.919281,190.716797 381.706451,189.782501 390.685913,188.705170 
	C385.685852,194.134399 381.520386,198.657349 377.061157,203.732666 
	C362.558868,218.634766 348.360931,232.995056 334.112823,247.305344 
	C333.339935,248.081635 332.147186,248.439911 331.149902,248.992767 
	C331.036377,248.872238 330.909515,248.761642 330.811188,248.629776 
	C325.788055,241.893692 325.788361,241.893478 317.477722,244.209335 
z"/>
<path fill="#E94477" opacity="1.000000" stroke="none" 
	d="
M331.217987,249.327301 
	C332.147186,248.439911 333.339935,248.081635 334.112823,247.305344 
	C348.360931,232.995056 362.558868,218.634766 377.035217,204.056381 
	C383.329285,204.908997 389.355469,205.990265 396.944702,207.351974 
	C389.002747,212.431122 382.233337,216.760376 374.447327,221.739792 
	C378.249390,225.000763 381.691345,227.952866 385.133301,230.904968 
	C384.918640,231.289459 384.703949,231.673950 384.489258,232.058441 
	C379.764618,232.058441 375.040009,232.058441 369.592316,232.058441 
	C370.158051,233.890106 370.516357,235.050125 370.609009,236.680328 
	C367.232910,240.413605 364.122498,243.676651 361.012115,246.939697 
	C356.896088,245.286423 352.780029,243.633133 348.367767,241.860855 
	C345.188782,248.553604 342.086121,255.085724 338.703064,262.208099 
	C335.982513,257.606110 333.634308,253.633972 331.217987,249.327301 
z"/>
<path fill="#E94577" opacity="1.000000" stroke="none" 
	d="
M304.958801,280.998596 
	C306.735321,309.723236 281.158966,333.358185 251.470093,329.691589 
	C253.186020,326.916321 255.318802,324.673950 257.210114,322.243622 
	C259.570068,319.211090 261.731110,316.023804 264.252747,312.681030 
	C273.549896,310.080872 279.988159,304.389252 285.044373,296.842010 
	C286.861481,296.185120 288.666962,295.569946 290.005219,294.413910 
	C295.071869,290.037170 299.986969,285.485077 304.958801,280.998596 
z"/>
<path fill="#F2436D" opacity="1.000000" stroke="none" 
	d="
M159.807098,242.240509 
	C153.435669,235.133942 152.783875,227.298218 157.805588,221.301254 
	C162.713516,215.440170 170.953934,213.969208 177.640671,217.760559 
	C184.907166,221.880646 187.563217,230.297745 183.863770,237.481705 
	C180.044205,244.898926 170.735733,248.182800 163.427994,244.635620 
	C162.244980,244.061371 161.197311,243.208282 159.807098,242.240509 
z"/>
<path fill="#ED436D" opacity="1.000000" stroke="none" 
	d="
M263.978027,312.903320 
	C261.731110,316.023804 259.570068,319.211090 257.210114,322.243622 
	C255.318802,324.673950 253.186020,326.916321 251.078003,329.567932 
	C241.023911,329.269745 232.880905,324.586639 225.239716,318.089050 
	C228.851074,313.983307 232.649460,310.163025 237.055237,306.284424 
	C245.582062,311.811066 253.951431,315.622833 263.978027,312.903320 
z"/>
<path fill="#EB4472" opacity="1.000000" stroke="none" 
	d="
M305.023254,280.561035 
	C299.986969,285.485077 295.071869,290.037170 290.005219,294.413910 
	C288.666962,295.569946 286.861481,296.185120 285.100128,296.480042 
	C288.523285,288.204071 288.872040,280.286469 286.858643,272.136963 
	C291.502441,268.384399 295.754333,264.685272 300.006256,260.986145 
	C301.700043,267.365234 303.393860,273.744354 305.023254,280.561035 
z"/>
<path fill="#F04269" opacity="1.000000" stroke="none" 
	d="
M299.969299,260.636719 
	C295.754333,264.685272 291.502441,268.384399 286.684784,271.851837 
	C283.040466,267.190002 279.961884,262.759857 276.883301,258.329681 
	C280.516602,254.329971 284.149872,250.330261 287.960876,246.026276 
	C292.069855,250.577103 296.001068,255.432205 299.969299,260.636719 
z"/>
<path fill="#E64980" opacity="1.000000" stroke="none" 
	d="
M361.280914,247.165283 
	C364.122498,243.676651 367.232910,240.413605 370.677612,237.073395 
	C374.129150,242.778564 377.246368,248.560883 380.363586,254.343201 
	C380.069580,254.683472 379.775604,255.023727 379.481628,255.363998 
	C373.504333,252.706299 367.527008,250.048599 361.280914,247.165283 
z"/>
<path fill="#FFFEFE" opacity="1.000000" stroke="none" 
	d="
M378.572052,162.194794 
	C378.681915,162.482330 378.582031,162.858109 378.201477,163.132965 
	C377.914276,162.691788 378.061432,162.442123 378.572052,162.194794 
z"/>
<path fill="#FFFEFE" opacity="1.000000" stroke="none" 
	d="
M276.554565,258.192444 
	C279.961884,262.759857 283.040466,267.190002 286.292908,271.905273 
	C288.872040,280.286469 288.523285,288.204071 284.873932,296.273376 
	C279.988159,304.389252 273.549896,310.080872 264.252747,312.681030 
	C253.951431,315.622833 245.582062,311.811066 237.339264,306.110229 
	C230.026886,298.980316 225.920135,290.725769 226.583511,280.622650 
	C227.367157,268.687439 233.272934,259.876251 243.927994,254.644226 
	C255.255524,249.082016 266.117737,250.678909 276.554565,258.192444 
z"/>
</svg>